<svg id="Capa_1" enable-background="new 0 0 501 501" height="512" viewBox="0 0 501 501" width="512" xmlns="http://www.w3.org/2000/svg"><g><path d="m495.5 256c0 55.285-18.311 106.292-49.2 147.289-.423.561-3.414 1.121-3.842 1.678-3.074 4.008-6.268 7.918-9.579 11.724-.465.534 1.634 1.067 1.165 1.597-25.599 28.93-57.932 51.763-94.544 66.044-.465.181-.931-.845-1.397-.667-3.888 1.489-7.823 2.882-11.803 4.175-.599.195-1.199 1.594-1.801 1.784-23.348 7.388-48.208 11.374-74 11.374-135.31 0-245-109.69-245-245 0-6.199.23-12.344.683-18.427.047-.636 2.496-1.271 2.548-1.906.315-3.832.718-7.64 1.207-11.42.072-.559-2.252-1.116-2.176-1.674 6.991-51.242 29.825-97.442 63.405-133.502.762-.818 1.529 1.092 2.302.284 3.544-3.704 7.204-7.297 10.973-10.773.573-.528 1.148-3.776 1.725-4.299 43.464-39.326 101.101-63.281 164.334-63.281 71.883 0 136.683 31.119 181.5 80.429 1.209 1.33 1.692 6.839 2.872 8.196 3.195 3.673 6.282 7.443 9.256 11.303.776 1.007 2.109-2.306 2.87-1.287 30.466 40.837 48.502 91.492 48.502 146.359z" fill="#172a7d"/><path d="m449.73 314.271c1.406 1.406 2.196 3.314 2.196 5.303s-.79 3.897-2.196 5.303l-42.427 42.426c-1.465 1.464-3.385 2.197-5.304 2.197-1.92 0-3.839-.732-5.304-2.197-2.929-2.929-2.929-7.678 0-10.606l29.198-29.197h-73.893c-6.893 0-12.5 5.607-12.5 12.5v144.333c-4.925 1.921-9.927 3.687-15 5.292v-149.625c0-15.164 12.337-27.5 27.5-27.5h74.746l-30.05-30.05c-2.929-2.929-2.929-7.678 0-10.606 2.93-2.929 7.678-2.929 10.607 0zm-300.18-19.501-30.05 30.05v-74.747c0-15.163-12.336-27.5-27.5-27.5h-84.239c-.676 4.954-1.203 9.956-1.578 15h85.817c6.893 0 12.5 5.607 12.5 12.5v73.894l-29.197-29.197c-2.929-2.929-7.678-2.929-10.606 0-1.465 1.465-2.197 3.384-2.197 5.304 0 1.919.732 3.839 2.197 5.304l42.426 42.427c1.406 1.406 3.314 2.196 5.303 2.196s3.897-.79 5.303-2.196l42.427-42.427c2.929-2.93 2.929-7.678 0-10.607-2.928-2.93-7.677-2.93-10.606-.001zm-70.883-106.104c8.284 0 15-6.716 15-15 0-5.552-3.017-10.399-7.5-12.993v-86.388c-5.208 4.713-10.213 9.647-15 14.787v71.601c-4.484 2.594-7.5 7.441-7.5 12.993 0 8.284 6.715 15 15 15zm303.833 207.123c-8.284 0-15 6.716-15 15s6.716 15 15 15c5.552 0 10.4-3.016 12.993-7.5h38.551c4.277-4.833 8.366-9.837 12.256-15h-50.807c-2.593-4.483-7.441-7.5-12.993-7.5zm57-145.789c8.284 0 15-6.716 15-15 0-5.552-3.017-10.399-7.5-12.993v-112.362c-4.71-6.313-9.717-12.392-15-18.215v130.578c-4.483 2.594-7.5 7.441-7.5 12.993 0 8.283 6.716 14.999 15 14.999zm-327.583 135c-5.552 0-10.4 3.017-12.993 7.5h-51.906c3.456 5.142 7.101 10.145 10.927 15h40.979c2.594 4.483 7.441 7.5 12.993 7.5 8.284 0 15-6.716 15-15s-6.716-15-15-15z" fill="#008a80"/><path d="m321.915 176.551v75.898c0 4.389-1.744 8.599-4.848 11.703l-23.406 23.406c-3.104 3.104-4.848 7.314-4.848 11.703v164.189c0 9.141-7.41 16.551-16.551 16.551h-33.101c-9.141 0-16.551-7.41-16.551-16.551v-9.695c0-4.389-1.744-8.599-4.848-11.703l-23.406-23.406c-3.104-3.104-4.848-7.314-4.848-11.703v-230.392c0-9.141 7.41-16.551 16.551-16.551h99.304c9.142 0 16.552 7.41 16.552 16.551z" fill="#f5dc90"/><path d="m272.264 480h-10.517c-9.141 0-16.551-7.41-16.551-16.551v-16.637c0-4.39-1.744-8.599-4.847-11.703l-23.406-23.406c-3.104-3.104-4.847-7.314-4.847-11.703v-223.449c0-9.141 7.41-16.551 16.551-16.551h76.719c9.141 0 16.551 7.41 16.551 16.551v75.898c0 4.389-1.744 8.599-4.848 11.703l-23.406 23.406c-3.104 3.104-4.848 7.313-4.848 11.703v164.189c-.001 9.14-7.411 16.55-16.551 16.55z" fill="#fff5f5"/><path d="m204.51 298.917v27.5c0 4.142-3.358 7.5-7.5 7.5h-7.5v-42.5h7.5c4.143 0 7.5 3.357 7.5 7.5zm-7.5-111.417h-7.5v42.5h7.5c4.142 0 7.5-3.358 7.5-7.5v-27.5c0-4.142-3.357-7.5-7.5-7.5zm0 162.5h-7.5v42.5h7.5c4.142 0 7.5-3.358 7.5-7.5v-27.5c0-4.142-3.357-7.5-7.5-7.5zm102.666-246.25c0-4.142-3.358-7.5-7.5-7.5s-7.5 3.358-7.5 7.5v142.093l-48.003 48.003c-1.407 1.406-2.197 3.314-2.197 5.304v96.607c-1.11.642-2.156 1.438-3.106 2.388-5.858 5.858-5.858 15.355 0 21.213s15.355 5.858 21.213 0 5.858-15.355 0-21.213c-.95-.95-1.996-1.746-3.106-2.388v-93.5l48.003-48.003c1.491-1.491 2.222-3.453 2.196-5.406 0-.032.001-.064.001-.096v-145.002zm-52.722 152.077c.316-5.895-2.773-11.098-7.478-13.82v-114.507c0-4.142-3.358-7.5-7.5-7.5-4.142 0-7.5 3.358-7.5 7.5v114.507c-4.484 2.594-7.5 7.441-7.5 12.993 0 8.523 7.109 15.386 15.72 14.983 7.592-.355 13.851-6.567 14.258-14.156zm15.522-25.827c4.142 0 7.5-3.358 7.5-7.5v-45c0-4.142-3.358-7.5-7.5-7.5-4.142 0-7.5 3.358-7.5 7.5v45c0 4.142 3.358 7.5 7.5 7.5z" fill="#f5b65d"/><path d="m356.976 0h-202.526c-11.046 0-20 8.954-20 20v165.579c0 11.046 8.954 20 20 20h202.526c11.046 0 20-8.954 20-20v-165.579c0-11.046-8.954-20-20-20zm-33.895 85c0 2.761-2.239 5-5 5h-124.737c-2.761 0-5-2.239-5-5v-43.895c0-2.761 2.239-5 5-5h124.737c2.761 0 5 2.239 5 5z" fill="#01988c"/><path d="m356.976 0h-200v205.579h200c11.046 0 20-8.954 20-20v-165.579c0-11.046-8.954-20-20-20zm-33.895 85c0 2.761-2.239 5-5 5h-124.737c-2.761 0-5-2.239-5-5v-43.895c0-2.761 2.239-5 5-5h124.737c2.761 0 5 2.239 5 5z" fill="#0ed1b2"/><path d="m239.476 160.579v45h-15v-42c0-1.657-1.343-3-3-3h-26.507c-2.594 4.484-7.441 7.5-12.993 7.5-8.522 0-15.385-7.107-14.983-15.718.354-7.591 6.566-13.851 14.154-14.26 5.896-.317 11.1 2.772 13.822 7.478h29.507c8.284 0 15 6.715 15 15zm22.5-60.579c-8.284 0-15 6.716-15 15 0 5.756 3.242 10.755 8 13.27v77.309h15v-77.889c4.206-2.657 7-7.347 7-12.69 0-8.284-6.716-15-15-15zm94.983 52.361c-.354-7.591-6.566-13.851-14.154-14.26-5.896-.317-11.1 2.772-13.822 7.478h-29.507c-8.284 0-15 6.716-15 15v45h15v-42c0-1.657 1.343-3 3-3h26.507c2.594 4.484 7.441 7.5 12.993 7.5 8.523 0 15.385-7.107 14.983-15.718z" fill="#01988c"/></g></svg>