<svg height="512" viewBox="0 0 60 60" width="512" xmlns="http://www.w3.org/2000/svg"><g id="Page-1" fill="none" fill-rule="evenodd"><g id="011---Biometric-Scan" fill-rule="nonzero" transform="translate(0 -1)"><path id="Shape" d="m50.54 22.23c-1.345274-.7866187-2.8717481-1.2104479-4.43-1.23h-2.11c-.7520593.0006427-1.5011269.0946961-2.23.28-1.2443952.315446-2.4048068.8990647-3.4 1.71-2.1356294 1.698836-3.3770306 4.2810978-3.37 7.01v8c-2.209139 0-4 1.790861-4 4v9.5c-9.9277146 2.026377-20.096764-2.1399592-25.74881162-10.5494822-5.65204766-8.4095231-5.66920347-19.3989557-.04343983-27.8260847 5.62576365-8.42712906 15.78175515-12.62519506 25.71574815-10.62982455 9.9339931 1.99537052 17.6811929 9.78952325 19.6165033 19.73539145z" fill="#a4c2f7"/><path id="Shape" d="m47.268 21.091c1.154038.1645955 2.2652118.5514008 3.272 1.139-2.2794713-11.7502034-12.5707372-20.23399753-24.54-20.23-.555 0-1.1.025-1.65.06 11.0023335.59022029 20.3162304 8.3244367 22.918 19.031z" fill="#7facfa"/><path id="Shape" d="m43.11 21h-2.11c-.7520593.0006427-1.5011269.0946961-2.23.28-1.2443952.315446-2.4048068.8990647-3.4 1.71-2.1356294 1.698836-3.3770306 4.2810978-3.37 7.01v8c-2.209139 0-4 1.790861-4 4v9.5c-1.1544731.2332773-2.3241018.3839923-3.5.451.5.03.995.049 1.5.049 1.6792249.0015912 3.3543422-.1659206 5-.5v-9.5c0-2.209139 1.790861-4 4-4v-8c-.0070306-2.7289022 1.2343706-5.311164 3.37-7.01.9951932-.8109353 2.1556048-1.394554 3.4-1.71.5701028-.1380494 1.1520695-.2214267 1.738-.249-.134-.007-.263-.031-.398-.031z" fill="#7facfa"/><rect id="Rectangle-path" fill="#e8edfc" height="22" rx="4" width="28" x="31" y="38"/><path id="Shape" d="m55 30 .0000066 8h-4.0000066v-8c.00027-.3154971-.0298693-.6302859-.09-.94-.3827186-2.0238979-1.9732783-3.6025284-4-3.97-.2995911-.0601504-.6044303-.0902993-.91-.09h-2c-.4598469.0014378-.9173658.0653559-1.36.19-1.6550101.4664373-2.9542384 1.7505583-3.44 3.4-.1328431.4582129-.2001773.9329189-.2 1.41v8h-4.0000297l.0000297-8c-.0070306-2.7289022 1.2343706-5.311164 3.37-7.01.9951932-.8109353 2.1556048-1.394554 3.4-1.71.7288731-.1853039 1.4779407-.2793573 2.23-.28h2.11c1.5582519.0195521 3.084726.4433813 4.43 1.23v.01c2.764363 1.6059989 4.4638665 4.5629826 4.46 7.76z" fill="#e8edfc"/><path id="Shape" d="m51 30 .0000018 8h-12.0000021l.0000003-8c-.0001773-.4770811.0671569-.9517871.2-1.41.4857616-1.6494417 1.7849899-2.9335627 3.44-3.4.4426342-.1246441.9001531-.1885622 1.36-.19h2c.3055697-.0002993.6104089.0298496.91.09 2.0267217.3674716 3.6172814 1.9461021 4 3.97.0601307.3097141.09027.6245029.09.94z" fill="#a4c2f7"/><path id="Shape" d="m50.91 29.06c-.3827186-2.0238979-1.9732783-3.6025284-4-3.97-.2995911-.0601504-.6044303-.0902993-.91-.09h-2c-.193668.0023664-.3870179.0163917-.579.042.1637248.0074721.3269473.0234939.489.048 2.0267217.3674716 3.6172814 1.9461021 4 3.97.0601307.3097141.09027.6245029.09.94v8h3.0000018l-.0000018-8c.00027-.3154971-.0298693-.6302859-.09-.94z" fill="#7facfa"/><circle id="Oval" cx="45" cy="49" fill="#e8edfc" r="7"/><path id="Shape" d="m45 42c-.5044849.0007873-1.0074065.0561087-1.5.165 3.2064126.7087816 5.4891145 3.5511831 5.4891145 6.835s-2.2827019 6.1262184-5.4891145 6.835c2.6211486.579393 5.3427728-.3912156 7.0057888-2.4984637 1.663016-2.107248 1.9744743-4.9799318.8017312-7.3946348-1.172743-2.4147029-3.6231022-3.9460614-6.30752-3.9419015z" fill="#cad9fc"/><path id="Shape" d="m27.45 51.957c-13.1690995-.8072261-23.44395561-11.7092753-23.47039607-24.9030653-.02644046-13.1937901 10.20463777-24.13693338 23.37039607-24.9969347-.45-.021-.895-.057-1.35-.057-9.1083613-.00567436-17.49903804 4.94280731-21.90144177 12.9165843-4.40240374 7.973777-4.11978488 17.7108738.73769502 25.415883 4.85747991 7.7050093 13.52104825 12.1584921 22.61374675 11.6245327z" fill="#fff"/><path id="Shape" d="m3.229 34.548-1.9.629c-.84948543-2.6438542-1.29747232-5.4002039-1.329-8.177h2c.0323326 2.5630913.446551 5.1070461 1.229 7.548z" fill="#fff"/><g fill="#428dff"><path id="Shape" d="m1.365 31.987c-.55228475.0027614-1.00223858-.4427153-1.005-.995s.44271525-1.0022386.995-1.005h.01c.55228475 0 1 .4477153 1 1s-.44771525 1-1 1z"/><path id="Shape" d="m14.336 10.762c8.045-5.78 19.73-4.392 26.6 3.157.2370789.2770197.6061427.4030453.9631397.3288869.3569969-.0741584.6453349-.336745.7524709-.6852679s.0160864-.7277332-.2376106-.989619c-7.544-8.288-20.393-9.8-29.249-3.435-.4398357.32519486-.5367694.9434399-.2175666 1.3876433s.9360771.5495088 1.3845666.2363567z"/><path id="Shape" d="m8.717 15.041c-.46807686-.2928947-1.0849586-.150985-1.378.317-2.18253172 3.4908473-3.3395605 7.5250279-3.339 11.642 0 .5522847.44771525 1 1 1s1-.4477153 1-1c-.00061293-3.7421398 1.0510823-7.409039 3.035-10.582.29203022-.4681289.14972738-1.0843271-.318-1.377z"/><path id="Shape" d="m18.971 33.316c-1.2360341 3.6974723-3.5255129 6.9532107-6.587 9.367-.4222729.3439266-.4916875.9625238-.1561428 1.3914872.3355448.4289635.9526552.5105456 1.3881428.1835128 3.3717285-2.6571468 5.8928548-6.2422697 7.253-10.314.1121814-.3394023.0347723-.712871-.203068-.9797241s-.5999783-.3865493-.95-.314c-.3500217.0725492-.6347506.3263218-.746932.6657241z"/><path id="Shape" d="m22.237 47.11c-.2391893.2654483-.3185944.6383387-.208304.9782069.1102903.3398682.3935203.5950801.743.6695.3494796.0744198.7121147-.0432586.951304-.3087069 4.8266151-5.351021 7.7170342-12.1675221 8.208-19.357.293-4.5-1.41-7.333-4.792-7.984-1.7554865-.3198995-3.5626893.1509449-4.9389046 1.2867707-1.3762152 1.1358258-2.1812558 2.8209329-2.2000954 4.6052293 0 .5522847.4477153 1 1 1s1-.4477153 1-1c.01811-1.1880161.556478-2.3082843 1.4727828-3.0646543.9163048-.7563701 2.1182952-1.0726926 3.2882172-.8653457 2.331.449 3.4 2.43 3.174 5.89-.4600249 6.7416007-3.1709705 13.1333471-7.698 18.15z"/><path id="Shape" d="m34.484 23.887c.4897142-.2547397.6803919-.8581051.426-1.348-1.4334865-2.6901155-3.9765648-4.6145182-6.955-5.263-2.836974-.6427483-5.8124362.0325573-8.094 1.837-3.087 2.406-3.431 5.312-3.8 8.389-.078.659-.157 1.335-.268 2.028-.6741806 4.1348717-2.9365626 7.8429535-6.305 10.334-.44514147.3269526-.5409525.9528585-.21399995 1.398.32695256.4451414.95285845.5409525 1.39799995.214 3.7927439-2.8024416 6.3405245-6.975778 7.1-11.63.116-.72.2-1.424.281-2.109.341-2.88.61-5.154 3.038-7.047 1.8156766-1.4341666 4.1823184-1.9707867 6.439-1.46 2.3992846.5192822 4.4493665 2.0662586 5.607 4.231.2547222.4891302.8573467.6797153 1.347.426z"/><path id="Shape" d="m14.1 26.92c.0541694-2.1284453.6055275-4.2147018 1.61-6.092.2389519-.4679804.0749564-1.0410703-.3753856-1.3118022s-1.0333979-.1467466-1.3346144.2838022c-1.1632018 2.1251793-1.8093245 4.4945239-1.886 6.916-.063.613-.128 1.24-.217 1.884-.4500691 3.1902501-2.14581152 6.0722212-4.716 8.015-.4418278.3313708-.53137085.9581722-.2 1.4s.9581722.5313708 1.4.2c2.9951621-2.2633418 4.971121-5.6215731 5.495-9.339.092-.676.16-1.322.224-1.956z"/><path id="Shape" d="m10.421 20.125c.2356306.1219451.5100636.1452531.7628848.064793.2528212-.0804602.463305-.2580926.5851152-.493793 2.636314-4.9809625 7.6699142-8.2357261 13.294-8.596.3572656-.0242941.6744319-.2373416.8320254-.5588897s.1316721-.70274598-.068-1.00000003c-.1996721-.29725404-.5427598-.46540433-.9000254-.44111027-6.3203367.41020764-11.9749352 4.0711589-14.936 9.67-.12409881.236441-.14847865.5126944-.06770811.7672155.08077051.2545211.25998161.4661662.49770811.5877845z"/><path id="Shape" d="m9.04 25.021h-.013c-.5476322-.0000394-.99342842.4404072-1 .988-.036 3.078-.87 5.266-2.626 6.886-.26658641.2412462-.38314442.6070343-.30527843.9580399.07786598.3510057.33816866.6331922.68176177.7390781s.71758124.0191702.97951666-.227118c2.159-1.99 3.228-4.717 3.27-8.333.0061133-.5515266-.4354857-1.0038636-.987-1.011z"/><path id="Shape" d="m56 37.1v-7.1c-.0084902-3.3862105-1.7312407-6.5377486-4.577-8.373-2.7462624-13.02683672-14.8919178-21.87231963-28.1330026-20.48880742-13.2410848 1.38351222-23.29590493 12.54864112-23.2899974 25.86180742 0 .5522847.44771525 1 1 1s1-.4477153 1-1c.01233727-11.9802651 8.8576472-22.11656844 20.7259168-23.75091231 11.8682696-1.63434388 23.1240776 5.73389473 26.3740832 17.26491231-.7322068-.2388071-1.4895685-.3921586-2.257-.457-.067-.2-.124-.407-.2-.606-.0950775-.247818-.2847789-.4476695-.5273094-.5555233-.2425306-.1078539-.5179904-.1148607-.7656906-.0194767-.4474299.1781168-.7009954.6531295-.6 1.124h-.75c-.5362243.0036922-1.071283.0505099-1.6.14-1.6663893-4.6548825-5.343853-8.3095665-10.009-9.947-.5134397-.1793319-1.0760658.0845485-1.2664602.5939895-.1903944.5094411.0612561 1.0776427.5664602 1.2790105 4.0542951 1.4208377 7.2685037 4.5683736 8.774 8.592-.5635698.2142563-1.1064748.4793493-1.622.792-.082-.19-.161-.38-.252-.568-1.7463415-3.5032135-4.8672955-6.1253292-8.6191446-7.241502-3.7518491-1.1161727-7.7985768-.6264377-11.1758554 1.352502-.3061766.184349-.4907464.5180379-.4841838.8753691.0065626.3573313.2032607.6840178.516.857s.6940072.16598 1.0001838-.0183691c2.8954558-1.6899974 6.361208-2.1063804 9.5745683-1.1503096 3.2133602.9560708 5.8877861 3.1993406 7.3884317 6.1973096.15.311.282.625.406.94-2.0364784 1.8839397-3.1951214 4.5317489-3.197 7.306v7.1c-2.3264168.4784327-3.9970017 2.5248992-4 4.9v.985c-.7944651 1.5079903-1.7094404 2.9493439-2.736 4.31-.2243358.283831-.2778746.6666975-.1400015 1.0011786.137873.3344811.4456553.5684111.8048366.6117163.3591814.0433053.7137439-.1107681.9271649-.4028949.4-.527.771-1.09 1.144-1.649v3.806c-1.3216776.2232029-2.6596089.3362581-4 .338-2.5037616-.0354694-4.9895871-.4287834-7.382-1.168-2.3797529-.7793143-4.6241326-1.9232631-6.653-3.391-2.04443635-1.4508983-3.83520145-3.2294998-5.3-5.264-1.49420346-2.0107672-2.65473637-4.2491067-3.437-6.629-.18464541-.5033366-.72367009-.781753-1.241-.641-.26220215.0713863-.48249214.2493807-.60735406.4907424s-.14286872.5240019-.04964594.7792576c.84797285 2.5787159 2.10501231 5.0043327 3.723 7.184 1.58709408 2.2021887 3.52604062 4.1279589 5.739 5.7 2.1975351 1.5911587 4.6292958 2.8306549 7.208 3.674 2.5920446.8038161 5.2864081 1.2298624 8 1.265 1.339213-.0001326 2.6764518-.1027657 4-.307v3.307c.0033061 2.7600532 2.2399468 4.9966939 5 5h20c2.7600532-.0033061 4.9966939-2.2399468 5-5v-14c-.0029983-2.3751008-1.6735832-4.4215673-4-4.9zm-12-15.1h2.1c1.3439971.0180266 2.6619568.373219 3.833 1.033.0340803.0262773.0698212.0503273.107.072 2.4506228 1.4321753 3.9578905 4.0565719 3.96 6.895v7h-2v-7c.0004672-.3775624-.0353643-.7542954-.107-1.125-.4607229-2.4235214-2.3614765-4.3159366-4.787-4.766-.3641453-.0728834-.7346327-.1093962-1.106-.109h-2c-1.5920315-.0023934-3.119546.628979-4.2452835 1.7547165s-1.7571099 2.653252-1.7547165 4.2452835v7h-2v-7c.0049599-4.4162219 3.5837781-7.9950401 8-8zm6.000007 15h-10.0000073l.0000003-7c-.000137-.3819929.0537294-.762087.16-1.129.504507-1.70071 2.06604-2.8682 3.84-2.871h2c.2465287-.0000016.4924327.0247898.734.074 1.618237.2970731 2.8872772 1.5585642 3.194 3.175.0483639.2473964.0724781.498921.072.751zm7.999993 19c0 1.6568542-1.3431458 3-3 3h-20c-1.6568542 0-3-1.3431458-3-3v-14c0-1.6568542 1.3431458-3 3-3h20c1.6568542 0 3 1.3431458 3 3z"/><path id="Shape" d="m45 41c-4.418278 0-8 3.581722-8 8s3.581722 8 8 8 8-3.581722 8-8c-.0049599-4.4162219-3.5837781-7.9950401-8-8zm0 14c-3.3137085 0-6-2.6862915-6-6s2.6862915-6 6-6 6 2.6862915 6 6c-.0033074 3.3123376-2.6876624 5.9966926-6 6z"/><path id="Shape" d="m46 47v-1c0-.5522847-.4477153-1-1-1s-1 .4477153-1 1v2c0 .5522847.4477153 1 1 1v1c-.5522847 0-1 .4477153-1 1v1c0 .5522847.4477153 1 1 1s1-.4477153 1-1c.5522847 0 1-.4477153 1-1v-3c0-.5522847-.4477153-1-1-1z"/></g></g></g></svg>