<?xml version="1.0" encoding="iso-8859-1"?>
<!-- Generator: Adobe Illustrator 19.0.0, SVG Export Plug-In . SVG Version: 6.00 Build 0)  -->
<svg version="1.1" id="Layer_1" xmlns="http://www.w3.org/2000/svg" xmlns:xlink="http://www.w3.org/1999/xlink" x="0px" y="0px"
	 viewBox="0 0 512 512" style="enable-background:new 0 0 512 512;" xml:space="preserve">
<path style="fill:#DB6B5E;" d="M392.818,273.184H16.568C7.432,273.184,0,280.616,0,289.751v102.614
	c0,9.136,7.432,16.568,16.568,16.568h376.251c4.427,0,8.017-3.588,8.017-8.017V281.2
	C400.835,276.772,397.246,273.184,392.818,273.184z"/>
<path style="fill:#C7CCD4;" d="M290.205,298.837H37.946c-6.778,0-12.292,5.514-12.292,12.292v59.858
	c0,6.778,5.514,12.292,12.292,12.292h252.259c4.427,0,8.017-3.588,8.017-8.017v-68.409
	C298.221,302.425,294.632,298.837,290.205,298.837z"/>
<rect x="42.756" y="315.944" style="fill:#ECEEF1;" width="238.363" height="50.238"/>
<g>
	<path style="fill:#435670;" d="M84.977,349.075c-4.427,0-8.017-3.588-8.017-8.017v-1.069c0-4.428,3.589-8.017,8.017-8.017
		c4.427,0,8.017,3.588,8.017,8.017v1.069C92.994,345.486,89.404,349.075,84.977,349.075z"/>
	<path style="fill:#435670;" d="M136.284,349.075c-4.427,0-8.017-3.588-8.017-8.017v-1.069c0-4.428,3.589-8.017,8.017-8.017
		c4.427,0,8.017,3.588,8.017,8.017v1.069C144.301,345.486,140.711,349.075,136.284,349.075z"/>
	<path style="fill:#435670;" d="M187.591,349.075c-4.427,0-8.017-3.588-8.017-8.017v-1.069c0-4.428,3.589-8.017,8.017-8.017
		s8.017,3.588,8.017,8.017v1.069C195.608,345.486,192.018,349.075,187.591,349.075z"/>
	<path style="fill:#435670;" d="M238.898,349.075c-4.427,0-8.017-3.588-8.017-8.017v-1.069c0-4.428,3.589-8.017,8.017-8.017
		s8.017,3.588,8.017,8.017v1.069C246.914,345.486,243.325,349.075,238.898,349.075z"/>
</g>
<path style="fill:#FFDB66;" d="M477.092,249.195c-30.37-30.372-74.198-41.937-115.43-30.778L204.997,61.752
	c-1.503-1.503-3.542-2.347-5.668-2.347H126.77c-4.427,0-8.017,3.588-8.017,8.017v72.559c0,2.126,0.844,4.164,2.348,5.668
	l18.139,18.141c1.503,1.503,3.542,2.347,5.668,2.347h51.841v51.841c0,4.504,4.121,8.624,8.625,8.624h51.841v51.841
	c0,2.126,0.844,4.164,2.348,5.669l18.202,18.202c-11.164,41.23,0.405,85.056,30.778,115.43c23.235,23.233,53.755,34.85,84.274,34.85
	s61.039-11.617,84.274-34.85C499.603,395.234,512,365.305,512,333.47S499.603,271.706,477.092,249.195z M441.568,382.22
	c-6.877,6.878-18.065,6.877-24.942,0v0.001c-3.331-3.332-5.166-7.761-5.166-12.472c0-4.711,1.834-9.14,5.166-12.472
	c3.332-3.331,7.76-5.166,12.471-5.166s9.139,1.835,12.471,5.167c3.331,3.331,5.166,7.76,5.166,12.471
	C446.734,374.46,444.9,378.89,441.568,382.22z"/>
<g>
	<path style="fill:#F7C14D;" d="M451.817,347.034c-6.069-6.07-14.138-9.414-22.719-9.414c-8.582,0-16.651,3.342-22.719,9.412
		c-6.068,6.07-9.411,14.139-9.411,22.72c0,8.581,3.342,16.651,9.411,22.72v-0.002c12.529,12.529,32.911,12.531,45.439,0
		c6.068-6.068,9.411-14.137,9.411-22.718C461.228,361.172,457.885,353.103,451.817,347.034z M441.568,382.22
		c-6.877,6.878-18.065,6.877-24.942,0v0.001c-3.331-3.332-5.166-7.761-5.166-12.472c0-4.711,1.834-9.14,5.166-12.472
		c3.332-3.331,7.76-5.166,12.471-5.166s9.139,1.835,12.471,5.167c3.331,3.331,5.166,7.76,5.166,12.471
		C446.734,374.46,444.9,378.89,441.568,382.22z"/>
	<path style="fill:#F7C14D;" d="M350.063,376.226c-21.026-28.035-13.33-67.558-9.869-80.905c0.758-2.923-0.103-6.027-2.238-8.163
		L118.753,67.956v72.024c0,2.126,0.844,4.164,2.348,5.668l18.138,18.14c1.504,1.504,3.543,2.348,5.669,2.348h51.841v51.837
		c0,4.505,4.118,8.628,8.625,8.628h51.841v51.841c0,2.126,0.844,4.165,2.348,5.668l18.202,18.202
		c-11.164,41.23,0.405,85.056,30.778,115.43c23.235,23.233,53.755,34.85,84.274,34.85s61.039-11.617,84.274-34.85
		c2.03-2.03,3.975-4.123,5.838-6.269C424.469,425.98,368.155,400.348,350.063,376.226z"/>
</g>
<g>
	<path style="fill:#F09B24;" d="M332.353,256.835c-2.051,0-4.103-0.782-5.668-2.347l-42.326-42.326
		c-3.131-3.132-3.131-8.207,0-11.338c3.131-3.13,8.207-3.13,11.337,0l42.326,42.326c3.131,3.132,3.131,8.207,0,11.338
		C336.457,256.051,334.404,256.835,332.353,256.835z"/>
	<path style="fill:#F09B24;" d="M265.84,190.323c-2.051,0-4.103-0.782-5.668-2.347l-72.559-72.56c-3.131-3.132-3.131-8.207,0-11.338
		c3.131-3.13,8.207-3.13,11.337,0l72.559,72.56c3.131,3.132,3.131,8.207,0,11.338C269.944,189.54,267.891,190.323,265.84,190.323z"
		/>
	<path style="fill:#F09B24;" d="M371.441,350.038c-2.051,0-4.103-0.782-5.668-2.347c-3.131-3.132-3.131-8.207,0-11.338l38.48-38.48
		c3.131-3.13,8.207-3.13,11.337,0c3.131,3.132,3.131,8.207,0,11.338l-38.48,38.48C375.544,349.256,373.492,350.038,371.441,350.038z
		"/>
	<path style="fill:#F09B24;" d="M358.614,311.558c-2.051,0-4.103-0.782-5.668-2.347c-3.131-3.132-3.131-8.207,0-11.338
		l17.102-17.102c3.131-3.13,8.207-3.13,11.337,0c3.131,3.132,3.131,8.207,0,11.338l-17.102,17.102
		C362.717,310.775,360.665,311.558,358.614,311.558z"/>
</g>
<g>
</g>
<g>
</g>
<g>
</g>
<g>
</g>
<g>
</g>
<g>
</g>
<g>
</g>
<g>
</g>
<g>
</g>
<g>
</g>
<g>
</g>
<g>
</g>
<g>
</g>
<g>
</g>
<g>
</g>
</svg>
